<?xml version="1.0" encoding="UTF-8"?>
<svg width="32" height="32" viewBox="0 0 32 32" fill="none" xmlns="http://www.w3.org/2000/svg">
  <rect width="32" height="32" rx="8" fill="#4F46E5"/>
  <path d="M16 8C11.5817 8 8 11.5817 8 16C8 20.4183 11.5817 24 16 24C20.4183 24 24 20.4183 24 16C24 11.5817 20.4183 8 16 8ZM16 22.4C12.465 22.4 9.6 19.535 9.6 16C9.6 12.465 12.465 9.6 16 9.6C19.535 9.6 22.4 12.465 22.4 16C22.4 19.535 19.535 22.4 16 22.4Z" fill="white"/>
  <path d="M16 11.2C13.3487 11.2 11.2 13.3487 11.2 16C11.2 18.6513 13.3487 20.8 16 20.8C18.6513 20.8 20.8 18.6513 20.8 16C20.8 13.3487 18.6513 11.2 16 11.2ZM16 19.2C14.2327 19.2 12.8 17.7673 12.8 16C12.8 14.2327 14.2327 12.8 16 12.8C17.7673 12.8 19.2 14.2327 19.2 16C19.2 17.7673 17.7673 19.2 16 19.2Z" fill="white"/>
  <path d="M16 14.4C15.3373 14.4 14.8 14.9373 14.8 15.6C14.8 16.2627 15.3373 16.8 16 16.8C16.6627 16.8 17.2 16.2627 17.2 15.6C17.2 14.9373 16.6627 14.4 16 14.4Z" fill="white"/>
</svg>
